<?xml version="1.0" standalone="no"?>
<!DOCTYPE svg PUBLIC "-//W3C//DTD SVG 20010904//EN"
 "http://www.w3.org/TR/2001/REC-SVG-20010904/DTD/svg10.dtd">
<svg version="1.0" xmlns="http://www.w3.org/2000/svg"
 width="512.000000pt" height="512.000000pt" viewBox="0 0 512.000000 512.000000"
 preserveAspectRatio="xMidYMid meet">

<g transform="translate(0.000000,512.000000) scale(0.100000,-0.100000)"
fill="#000000" stroke="none">
<path d="M273 4894 c-66 -33 -63 20 -63 -1054 0 -1078 -3 -1022 65 -1054 29
-14 141 -16 1005 -16 864 0 976 2 1005 16 68 32 65 -24 65 1054 0 1078 3 1022
-65 1054 -29 14 -140 16 -1007 16 -863 0 -977 -2 -1005 -16z m1857 -1054 l0
-850 -850 0 -850 0 0 850 0 850 850 0 850 0 0 -850z"/>
<path d="M2833 4894 c-66 -33 -63 20 -63 -1054 0 -1078 -3 -1022 65 -1054 29
-14 141 -16 1005 -16 864 0 976 2 1005 16 68 32 65 -24 65 1054 0 1078 3 1022
-65 1054 -29 14 -140 16 -1007 16 -863 0 -977 -2 -1005 -16z m1857 -1054 l0
-850 -850 0 -850 0 0 850 0 850 850 0 850 0 0 -850z"/>
<path d="M273 2334 c-66 -33 -63 20 -63 -1054 0 -1078 -3 -1022 65 -1054 29
-14 141 -16 1005 -16 864 0 976 2 1005 16 68 32 65 -24 65 1054 0 1078 3 1022
-65 1054 -29 14 -140 16 -1007 16 -863 0 -977 -2 -1005 -16z m1857 -1054 l0
-850 -850 0 -850 0 0 850 0 850 850 0 850 0 0 -850z"/>
<path d="M3793 2334 c-62 -31 -63 -36 -63 -513 l0 -431 -431 0 c-479 0 -483 0
-513 -65 -20 -41 -20 -49 0 -90 30 -65 34 -65 513 -65 l431 0 0 -431 c0 -479
0 -483 65 -513 41 -20 49 -20 90 0 65 30 65 34 65 513 l0 431 431 0 c479 0
483 0 513 65 20 41 20 49 0 90 -30 65 -34 65 -513 65 l-431 0 0 431 c0 479 0
483 -65 513 -41 20 -52 20 -92 0z"/>
</g>
</svg>
