<?xml version="1.0" standalone="no"?>
<!DOCTYPE svg PUBLIC "-//W3C//DTD SVG 20010904//EN"
 "http://www.w3.org/TR/2001/REC-SVG-20010904/DTD/svg10.dtd">
<svg version="1.0" xmlns="http://www.w3.org/2000/svg"
 width="512.000000pt" height="512.000000pt" viewBox="0 0 512.000000 512.000000"
 preserveAspectRatio="xMidYMid meet">

<g transform="translate(0.000000,512.000000) scale(0.100000,-0.100000)"
fill="#000000" stroke="none">
<path d="M2940 5109 c-187 -21 -481 -103 -500 -140 -18 -33 -8 -80 22 -102
l27 -20 118 36 c221 68 401 93 608 84 783 -37 1452 -586 1630 -1340 37 -158
48 -279 42 -465 -11 -385 -133 -722 -372 -1027 -71 -90 -231 -249 -317 -314
-81 -61 -103 -100 -103 -181 0 -61 3 -71 50 -145 74 -120 183 -259 277 -358
50 -51 78 -87 68 -87 -30 0 -255 59 -364 95 -61 20 -154 56 -209 80 -110 49
-287 144 -287 155 0 4 25 59 55 121 345 718 211 1559 -342 2139 -261 274 -605
464 -992 548 -118 25 -142 27 -384 27 -141 0 -257 2 -257 5 0 3 31 43 68 90
93 115 251 264 361 339 50 34 97 71 106 84 28 41 13 87 -36 106 -34 12 -71 -5
-172 -78 -201 -146 -368 -324 -498 -529 l-44 -68 -76 -22 c-165 -46 -384 -155
-551 -272 -108 -77 -284 -242 -370 -349 -223 -277 -364 -612 -409 -974 -15
-123 -7 -430 15 -545 86 -465 308 -844 668 -1144 60 -50 108 -98 108 -107 0
-49 -170 -279 -321 -434 -105 -108 -118 -133 -105 -202 9 -47 65 -102 112
-111 69 -13 384 66 597 150 145 56 296 132 426 214 l105 65 265 2 c249 0 274
2 392 27 125 27 280 77 384 123 67 29 85 62 61 112 -24 51 -52 51 -170 5 -129
-52 -302 -97 -430 -112 -59 -7 -191 -10 -321 -8 l-222 3 -54 -34 c-340 -214
-554 -304 -907 -381 l-82 -18 91 96 c103 109 217 256 280 362 81 137 61 229
-73 330 -322 244 -556 622 -650 1051 -20 91 -22 132 -22 334 0 260 12 339 84
556 224 672 842 1148 1543 1188 323 18 618 -41 890 -178 1030 -518 1292 -1855
534 -2722 -68 -78 -120 -126 -276 -257 -52 -44 -63 -72 -41 -112 14 -27 60
-40 93 -26 81 34 311 253 423 401 l56 75 72 -41 c239 -136 525 -241 809 -299
88 -17 114 -19 142 -10 43 14 92 70 100 114 13 67 -1 92 -129 225 -115 121
-194 221 -266 338 -41 66 -36 85 32 138 371 284 613 680 711 1160 19 96 22
140 22 350 -1 223 -3 249 -28 370 -108 507 -380 913 -802 1197 -373 252 -830
366 -1265 317z"/>
<path d="M1256 3168 c-181 -24 -335 -187 -353 -371 -5 -61 -4 -67 20 -91 15
-15 37 -26 52 -26 38 0 75 42 75 84 0 93 76 203 167 241 57 24 149 22 211 -5
91 -39 162 -145 162 -242 0 -36 40 -78 75 -78 37 0 75 42 75 82 0 46 -25 140
-51 190 -29 58 -109 140 -166 171 -79 42 -173 58 -267 45z"/>
<path d="M2568 3169 c-169 -23 -309 -159 -344 -333 -18 -88 -10 -126 32 -145
35 -15 48 -14 76 9 19 14 27 32 31 71 18 150 128 252 272 251 75 -1 119 -18
175 -68 53 -48 80 -101 91 -178 12 -91 63 -122 123 -75 22 17 26 28 26 69 0
105 -66 241 -148 307 -94 76 -212 108 -334 92z"/>
<path d="M895 2065 c-98 -49 -127 -140 -82 -253 83 -204 261 -417 457 -546
138 -92 315 -161 484 -191 114 -19 328 -19 442 0 413 72 749 326 926 701 47
101 50 156 13 220 -14 23 -42 53 -62 66 l-38 23 -1045 3 -1045 2 -50 -25z
m2109 -148 c9 -14 2 -35 -37 -111 -134 -264 -359 -454 -642 -545 -129 -42
-233 -54 -398 -48 -109 3 -165 11 -242 31 -120 31 -294 115 -385 184 -86 65
-201 187 -254 270 -50 78 -106 185 -106 205 0 37 -6 37 1038 35 958 -3 1015
-4 1026 -21z"/>
</g>
</svg>
